<svg width="512" height="512" viewBox="0 0 512 512" fill="none" xmlns="http://www.w3.org/2000/svg">
<path d="M394.001 480C390.633 480.013 387.347 478.963 384.611 477L256.001 383.76L127.391 477C124.643 478.993 121.333 480.06 117.939 480.048C114.544 480.035 111.242 478.944 108.509 476.931C105.776 474.918 103.754 472.088 102.735 468.851C101.716 465.613 101.753 462.135 102.841 458.92L153.001 310.35L23.0009 221.2C20.185 219.271 18.0598 216.492 16.9356 213.269C15.8115 210.046 15.7474 206.549 16.7528 203.287C17.7581 200.025 19.7802 197.17 22.5235 195.14C25.2669 193.109 28.5878 192.009 32.0009 192H192.381L240.781 43.0496C241.824 39.8339 243.858 37.031 246.592 35.0431C249.327 33.0551 252.62 31.9844 256.001 31.9844C259.382 31.9844 262.675 33.0551 265.41 35.0431C268.144 37.031 270.178 39.8339 271.221 43.0496L319.621 192.05H480.001C483.418 192.048 486.747 193.141 489.498 195.167C492.25 197.194 494.28 200.049 495.292 203.313C496.303 206.577 496.243 210.08 495.12 213.307C493.997 216.535 491.87 219.318 489.051 221.25L359.001 310.35L409.131 458.88C409.943 461.284 410.172 463.848 409.797 466.358C409.423 468.869 408.457 471.254 406.979 473.318C405.501 475.381 403.553 477.063 401.296 478.225C399.04 479.387 396.539 479.995 394.001 480Z" fill="#FFB84D"/>
</svg>
